HIERARCHY
ROOT Hips
{
 OFFSET 0.000000 0.000000 0.000000
 CHANNELS 6 Xposition Yposition Zposition Yrotation Xrotation Zrotation
 JOINT Chest
 {
  OFFSET 0.000000 9.585900 0.002600
  CHANNELS 3 Yrotation Xrotation Zrotation
  JOINT Chest2
  {
   OFFSET 0.000000 9.601200 -0.005300
   CHANNELS 3 Yrotation Xrotation Zrotation
   JOINT Chest3
   {
    OFFSET 0.000000 9.561800 0.000000
    CHANNELS 3 Yrotation Xrotation Zrotation
    JOINT Chest4
    {
     OFFSET 0.000000 9.552100 0.000000
     CHANNELS 3 Yrotation Xrotation Zrotation
     JOINT Neck
     {
      OFFSET 0.000000 14.453000 0.000000
      CHANNELS 3 Yrotation Xrotation Zrotation
      JOINT Head
      {
       OFFSET 0.000000 8.936500 -0.011300
       CHANNELS 3 Yrotation Xrotation Zrotation
       End Site
       {
        OFFSET 0.000000 17.073600 -0.006000
       }
      }
     }
     JOINT RightCollar
     {
      OFFSET -2.921100 9.558500 0.000000
      CHANNELS 3 Yrotation Xrotation Zrotation
      JOINT RightShoulder
      {
       OFFSET -13.519700 0.000000 0.000000
       CHANNELS 3 Yrotation Xrotation Zrotation
       JOINT RightElbow
       {
        OFFSET 0.000000 -29.696600 0.000000
        CHANNELS 3 Yrotation Xrotation Zrotation
        JOINT RightWrist
        {
         OFFSET 0.000000 -24.004700 0.000000
         CHANNELS 3 Yrotation Xrotation Zrotation
         End Site
         {
          OFFSET 0.000000 -17.728500 0.000000
         }
        }
       }
      }
     }
     JOINT LeftCollar
     {
      OFFSET 2.921100 9.558500 0.000000
      CHANNELS 3 Yrotation Xrotation Zrotation
      JOINT LeftShoulder
      {
       OFFSET 13.519700 0.000000 0.000000
       CHANNELS 3 Yrotation Xrotation Zrotation
       JOINT LeftElbow
       {
        OFFSET 0.000000 -29.696600 0.000000
        CHANNELS 3 Yrotation Xrotation Zrotation
        JOINT LeftWrist
        {
         OFFSET 0.000000 -24.004700 0.000000
         CHANNELS 3 Yrotation Xrotation Zrotation
         End Site
         {
          OFFSET 0.000000 -17.728500 0.000000
         }
        }
       }
      }
     }
    }
   }
  }
 }
 JOINT RightHip
 {
  OFFSET -7.771700 -0.012900 -0.001300
  CHANNELS 3 Yrotation Xrotation Zrotation
  JOINT RightKnee
  {
   OFFSET 0.000000 -40.869800 0.001200
   CHANNELS 3 Yrotation Xrotation Zrotation
   JOINT RightAnkle
   {
    OFFSET 0.000000 -39.717900 0.002100
    CHANNELS 3 Yrotation Xrotation Zrotation
    JOINT RightToe
    {
     OFFSET 0.000000 -4.965400 11.033500
     CHANNELS 3 Yrotation Xrotation Zrotation
     End Site
     {
      OFFSET 0.000000 -1.423100 5.872300
     }
    }
   }
  }
 }
 JOINT LeftHip
 {
  OFFSET 7.771700 -0.012900 -0.001300
  CHANNELS 3 Yrotation Xrotation Zrotation
  JOINT LeftKnee
  {
   OFFSET 0.000000 -40.869800 0.001200
   CHANNELS 3 Yrotation Xrotation Zrotation
   JOINT LeftAnkle
   {
    OFFSET 0.000000 -39.717900 0.002100
    CHANNELS 3 Yrotation Xrotation Zrotation
    JOINT LeftToe
    {
     OFFSET 0.000000 -4.965400 11.033500
     CHANNELS 3 Yrotation Xrotation Zrotation
     End Site
     {
      OFFSET 0.000000 -1.423100 5.872300
     }
    }
   }
  }
 }
}
MOTION
Frames: 7
Frame Time: 0.008333
0.000000 85.388000 0.000000 0.000000 -5.767877 0.000000 0.000000 11.653817 0.000000 0.000000 -5.885947 0.000000 0.000000 -0.000000 0.000000 0.000000 -0.000000 0.000000 0.000000 12.528835 0.000000 0.000000 0.711642 0.000000 0.000000 -0.000000 0.000000 0.000000 0.000000 -90.000000 0.000000 -2.309062 0.000000 0.000000 2.309062 0.000000 0.000000 -0.000000 0.000000 0.000000 -0.000000 90.000000 0.000000 -2.309062 0.000000 0.000000 2.309062 0.000000 0.000000 8.520406 0.000000 0.000000 1.905762 0.000000 -0.000000 -4.658285 0.000000 0.000000 -0.000000 0.000000 0.000000 8.520406 0.000000 0.000000 1.905762 0.000000 -0.000000 -4.658285 0.000000 0.000000 -0.000000 0.000000
-28.117908 48.699374 28.869523 173.134157 -31.006763 -0.021011 -0.396799 14.848393 1.723445 -0.392361 8.501830 1.383755 -0.458127 10.625812 1.725683 -0.387414 8.492816 1.382978 -0.435222 16.755804 -2.365087 0.013034 -4.665568 -4.228522 6.234567 4.921951 -5.591584 1.381183 -21.597493 -9.291736 36.316722 -63.690928 -23.726865 12.154932 5.413297 -38.034562 -2.585915 1.333952 -3.536217 5.832214 -22.841769 -1.491634 -71.046850 -46.385616 46.415476 -9.590041 14.946062 35.273659 23.765550 -50.707504 -28.109136 -110.620001 70.567145 -101.349661 1.393108 -5.079649 3.742807 0.128298 -0.834256 0.059378 -4.742410 -52.593855 13.777824 111.608441 80.751791 108.890060 -4.847370 -10.869183 -2.604099 0.308146 0.674623 0.134248
-28.117568 48.699812 28.869041 173.128328 -31.015856 -0.016163 -0.391558 14.855338 1.721963 -0.389790 8.498640 1.383585 -0.455888 10.624710 1.725118 -0.393836 8.492095 1.384865 -0.434377 16.765162 -2.365808 0.009376 -4.634530 -4.230550 6.239941 4.917128 -5.586694 1.376868 -21.591376 -9.283432 36.316115 -63.683842 -23.732281 12.162471 5.408648 -38.032196 -2.586144 1.333096 -3.538410 5.826569 -22.842296 -1.489707 -71.038163 -46.383125 46.407941 -9.586472 14.947780 35.273306 23.769821 -50.698972 -28.106512 -110.626937 70.570092 -101.359086 1.393456 -5.080211 3.746685 0.121767 -0.835460 0.057689 -4.733803 -52.583744 13.775235 111.621287 80.750554 108.903671 -4.851290 -10.871877 -2.605292 0.306421 0.674820 0.135646
-28.116661 48.699368 28.870058 173.120651 -31.015224 -0.015851 -0.388010 14.851665 1.724483 -0.390036 8.491490 1.382929 -0.457230 10.630119 1.726534 -0.390718 8.490289 1.381905 -0.434388 16.775143 -2.364764 0.003486 -4.606830 -4.232014 6.248067 4.912825 -5.581685 1.373280 -21.586415 -9.280881 36.301442 -63.679046 -23.726462 12.171248 5.406656 -38.025247 -2.583678 1.323102 -3.546144 5.817916 -22.831888 -1.479637 -71.025685 -46.381241 46.395283 -9.584363 14.944315 35.275618 23.771633 -50.702455 -28.094131 -110.619834 70.581415 -101.354309 1.372633 -5.079014 3.740956 0.130311 -0.834691 0.062723 -4.732711 -52.581431 13.784597 111.614453 80.751023 108.892433 -4.846771 -10.878176 -2.600792 0.305338 0.682437 0.134490
-28.115818 48.699129 28.870688 173.118083 -31.017556 -0.018981 -0.383825 14.847707 1.728528 -0.390698 8.494841 1.383331 -0.457470 10.625139 1.724825 -0.392045 8.492832 1.382869 -0.436950 16.785378 -2.366493 -0.002896 -4.576949 -4.229342 6.258456 4.907865 -5.575218 1.368341 -21.579153 -9.282455 36.286020 -63.678759 -23.719055 12.175108 5.410198 -38.021703 -2.583915 1.315705 -3.551943 5.815714 -22.821680 -1.471693 -71.017163 -46.381776 46.389844 -9.578787 14.938877 35.273208 23.762102 -50.701496 -28.078481 -110.601442 70.582544 -101.337498 1.364169 -5.080996 3.736989 0.134516 -0.829862 0.065529 -4.735138 -52.577702 13.792892 111.610243 80.750936 108.887342 -4.843010 -10.881749 -2.600226 0.301395 0.686753 0.134250
-28.116004 48.698786 28.871345 173.116994 -31.019544 -0.018364 -0.383459 14.837384 1.727828 -0.390301 8.504732 1.383758 -0.457404 10.622948 1.724694 -0.393847 8.495277 1.382675 -0.438839 16.796889 -2.367155 -0.005344 -4.567727 -4.228322 6.269014 4.899515 -5.568674 1.365037 -21.572732 -9.286332 36.269781 -63.680214 -23.712984 12.180110 5.416461 -38.018288 -2.586854 1.305329 -3.558685 5.819051 -22.822783 -1.464613 -70.995473 -46.380964 46.372561 -9.584219 14.932327 35.261166 23.761819 -50.700128 -28.076706 -110.594445 70.579499 -101.331964 1.369308 -5.079236 3.739611 0.132671 -0.830309 0.062979 -4.731851 -52.576942 13.792470 111.611958 80.753053 108.892119 -4.847815 -10.878611 -2.604307 0.303168 0.685095 0.137636
-28.117378 48.699240 28.870537 173.124792 -31.031887 -0.015633 -0.391203 14.842370 1.721474 -0.395186 8.499732 1.381760 -0.458234 10.630269 1.723911 -0.397466 8.492158 1.383430 -0.439101 16.816466 -2.368350 -0.003987 -4.559100 -4.228573 6.283233 4.899767 -5.564502 1.358437 -21.581037 -9.277881 36.257842 -63.666399 -23.707080 12.181670 5.412076 -38.003368 -2.584198 1.299685 -3.567467 5.824135 -22.814864 -1.458915 -70.998497 -46.383748 46.373969 -9.585161 14.936769 35.254506 23.757334 -50.686256 -28.075816 -110.590847 70.573348 -101.331635 1.367766 -5.076693 3.741231 0.135765 -0.833152 0.063783 -4.730763 -52.565638 13.774283 111.597918 80.747742 108.880060 -4.840629 -10.873555 -2.603891 0.292140 0.682269 0.132548
